<svg version="1.1" xmlns="http://www.w3.org/2000/svg" xmlns:xlink="http://www.w3.org/1999/xlink" width="124.80005" height="113.82867" viewBox="0,0,124.80005,113.82867"><g transform="translate(-181.83745,-123.08569)"><g data-paper-data="{&quot;isPaintingLayer&quot;:true}" fill-rule="nonzero" stroke="none" stroke-linecap="butt" stroke-linejoin="miter" stroke-miterlimit="10" stroke-dasharray="" stroke-dashoffset="0" style="mix-blend-mode: normal"><path d="M181.83746,236.91437v-113.82867h124.80005v113.82867z" fill-opacity="0.74902" fill="#808080" stroke-width="0"/><path d="M227.20008,144.80005c0,-1.76731 1.43269,-3.2 3.2,-3.2h57.6c1.76731,0 3.2,1.43269 3.2,3.2c0,1.76731 -1.43269,3.2 -3.2,3.2h-57.6c-1.76731,0 -3.2,-1.43269 -3.2,-3.2M227.20008,183.20007c0,-1.76731 1.43269,-3.2 3.2,-3.2h57.6c1.76731,0 3.2,1.43269 3.2,3.2c0,1.76731 -1.43269,3.2 -3.2,3.2h-57.6c-1.76731,0 -3.2,-1.43269 -3.2,-3.2M227.20008,221.60007c0,-1.76731 1.43269,-3.2 3.2,-3.2h57.6c1.76731,0 3.2,1.43269 3.2,3.2c0,1.76731 -1.43269,3.2 -3.2,3.2h-57.6c-1.76731,0 -3.2,-1.43269 -3.2,-3.2M188.80009,215.20007c0,-5.30194 4.29807,-9.6 9.6,-9.6h6.4c5.30194,0 9.6,4.29806 9.6,9.6v6.4c0,5.30194 -4.29806,9.6 -9.6,9.6h-6.4c-5.30193,0 -9.6,-4.29806 -9.6,-9.6zM188.80009,176.80006c0,-5.30194 4.29807,-9.6 9.6,-9.6h6.4c5.30194,0 9.6,4.29807 9.6,9.6v6.4c0,5.30194 -4.29806,9.6 -9.6,9.6h-6.4c-5.30193,0 -9.6,-4.29807 -9.6,-9.6zM188.80009,138.40004c0,-5.30193 4.29807,-9.6 9.6,-9.6h6.4c5.30194,0 9.6,4.29807 9.6,9.6v6.4c0,5.30194 -4.29806,9.6 -9.6,9.6h-6.4c-5.30193,0 -9.6,-4.29806 -9.6,-9.6z" fill="#000000" stroke-width="1"/></g></g></svg>