<svg version="1.1" xmlns="http://www.w3.org/2000/svg" xmlns:xlink="http://www.w3.org/1999/xlink" width="31.62289" height="28.84287" viewBox="0,0,31.62289,28.84287"><g transform="translate(-224.18855,-165.57856)"><g data-paper-data="{&quot;isPaintingLayer&quot;:true}" fill-rule="nonzero" stroke-linejoin="miter" stroke-miterlimit="10" stroke-dasharray="" stroke-dashoffset="0" style="mix-blend-mode: normal"><path d="M224.18856,194.42144v-28.84287h31.62289v28.84287z" data-paper-data="{&quot;index&quot;:null}" fill-opacity="0.01176" fill="#ffffff" stroke="none" stroke-width="0" stroke-linecap="butt"/><path d="M252.63062,184.33356c-1.83844,5.1944 -6.75043,8.66673 -12.26057,8.66711c-7.17745,0 -13.00066,-5.82321 -13.00066,-13.00066c0,-7.17745 5.82321,-13.00066 13.00066,-13.00066c3.5537,-0.00443 6.95337,1.45037 9.40381,4.02411l1.43007,1.66368" fill="none" stroke="#ffffff" stroke-width="2.5" stroke-linecap="square"/><path d="M253.82939,170.01815v6.6077c0,0.09632 -0.07808,0.1744 -0.1744,0.1744h-6.6077c-0.07058,0.00006 -0.13424,-0.04244 -0.16126,-0.10764c-0.02702,-0.06521 -0.01207,-0.14027 0.03787,-0.19015l6.6077,-6.6077c0.04988,-0.04994 0.12494,-0.06489 0.19015,-0.03787c0.06521,0.02702 0.1077,0.09067 0.10764,0.16125" fill="#ffffff" stroke="none" stroke-width="1" stroke-linecap="butt"/></g></g></svg>