<svg version="1.1" xmlns="http://www.w3.org/2000/svg" xmlns:xlink="http://www.w3.org/1999/xlink" width="24.42136" height="27.90579" viewBox="0,0,24.42136,27.90579"><g transform="translate(-227.64411,-166.00102)"><g stroke-miterlimit="10"><path d="M249.26804,179.87115c0,2.43232 -6.43249,-0.91798 -7.85321,0.74372c-1.59145,1.86139 1.68782,8.59379 -0.85245,8.59379c-4.80799,0 -8.70564,-4.18055 -8.70564,-9.3375c0,-5.15697 3.89765,-9.3375 8.70564,-9.3375c4.80799,0 8.70564,4.18055 8.70564,9.3375z" fill-opacity="0.90588" fill="#ffffff" stroke="#000000" stroke-width="1" stroke-linecap="butt"/><path d="M249.07697,186.72436c-4.33189,6.58898 -12.8235,8.65635 -18.96661,4.61759c-6.14309,-4.03876 6.25924,-4.04895 10.59111,-10.6379c4.33189,-6.58898 -1.04709,-17.26161 5.096,-13.22285c6.14309,4.03876 7.61138,12.65418 3.27949,19.24316z" fill-opacity="0.90588" fill="#ffffff" stroke="#000000" stroke-width="1" stroke-linecap="butt"/><path d="M240.43635,166.25103v3.22952" fill="none" stroke="#ffffff" stroke-width="0.5" stroke-linecap="round"/><path d="M238.85429,169.87424l-0.7373,-3.14423" fill="none" stroke="#ffffff" stroke-width="0.5" stroke-linecap="round"/><path d="M242.06368,169.74892l0.73731,-3.14423" fill="none" stroke="#ffffff" stroke-width="0.5" stroke-linecap="round"/><path d="M234.20659,168.30226l1.87853,2.62696" fill="none" stroke="#ffffff" stroke-width="0.5" stroke-linecap="round"/><path d="M232.39931,169.26987l1.98476,2.54765" fill="none" stroke="#ffffff" stroke-width="0.5" stroke-linecap="round"/><path d="M237.56495,170.20094l-1.2292,-2.98645" fill="none" stroke="#ffffff" stroke-width="0.5" stroke-linecap="round"/><path d="M227.97605,176.7575l3.13828,0.7622" fill="none" stroke="#ffffff" stroke-width="0.5" stroke-linecap="round"/><path d="M227.89412,179.12439l3.22942,0.0256" fill="none" stroke="#ffffff" stroke-width="0.5" stroke-linecap="round"/><path d="M231.7592,176.00168l-2.88139,-1.45855" fill="none" stroke="#ffffff" stroke-width="0.5" stroke-linecap="round"/><path d="M231.49515,182.08991l-2.99609,1.20548" fill="none" stroke="#ffffff" stroke-width="0.5" stroke-linecap="round"/><path d="M231.13669,180.48001l-3.19219,0.48963" fill="none" stroke="#ffffff" stroke-width="0.5" stroke-linecap="round"/><path d="M229.84749,172.45349l2.46015,2.09226" fill="none" stroke="#ffffff" stroke-width="0.5" stroke-linecap="round"/><path d="M231.2034,170.82387l1.97762,2.55319" fill="none" stroke="#ffffff" stroke-width="0.5" stroke-linecap="round"/><path d="M232.6599,185.90653l-2.98833,1.22464" fill="none" stroke="#ffffff" stroke-width="0.5" stroke-linecap="round"/><path d="M232.02277,184.59402l-3.17623,0.58435" fill="none" stroke="#ffffff" stroke-width="0.5" stroke-linecap="round"/></g></g></svg>