<svg version="1.1" xmlns="http://www.w3.org/2000/svg" xmlns:xlink="http://www.w3.org/1999/xlink" width="124.80004" height="113.82868" viewBox="0,0,124.80004,113.82868"><g transform="translate(-177.59998,-123.08569)"><g data-paper-data="{&quot;isPaintingLayer&quot;:true}" fill-rule="nonzero" stroke="none" stroke-linecap="butt" stroke-linejoin="miter" stroke-miterlimit="10" stroke-dasharray="" stroke-dashoffset="0" style="mix-blend-mode: normal"><path d="M177.59998,236.91436v-113.82867h124.80004v113.82868z" data-paper-data="{&quot;index&quot;:null}" fill-opacity="0.01961" fill="#ff0000" stroke-width="0"/><path d="M227.2,144.8c0,-1.76731 1.43269,-3.2 3.2,-3.2h57.6c1.76731,0 3.2,1.43269 3.2,3.2c0,1.76731 -1.43269,3.2 -3.2,3.2h-57.6c-1.76731,0 -3.2,-1.43269 -3.2,-3.2M227.2,183.2c0,-1.76731 1.43269,-3.2 3.2,-3.2h57.6c1.76731,0 3.2,1.43269 3.2,3.2c0,1.76731 -1.43269,3.2 -3.2,3.2h-57.6c-1.76731,0 -3.2,-1.43269 -3.2,-3.2M227.2,221.6c0,-1.76731 1.43269,-3.2 3.2,-3.2h57.6c1.76731,0 3.2,1.43269 3.2,3.2c0,1.76731 -1.43269,3.2 -3.2,3.2h-57.6c-1.76731,0 -3.2,-1.43269 -3.2,-3.2M188.8,215.2c0,-5.30194 4.29807,-9.6 9.6,-9.6h6.4c5.30194,0 9.6,4.29806 9.6,9.6v6.4c0,5.30193 -4.29806,9.6 -9.6,9.6h-6.4c-5.30193,0 -9.6,-4.29807 -9.6,-9.6zM188.8,176.8c0,-5.30194 4.29807,-9.6 9.6,-9.6h6.4c5.30194,0 9.6,4.29807 9.6,9.6v6.4c0,5.30194 -4.29806,9.6 -9.6,9.6h-6.4c-5.30193,0 -9.6,-4.29807 -9.6,-9.6zM188.8,138.4c0,-5.30193 4.29807,-9.6 9.6,-9.6h6.4c5.30194,0 9.6,4.29807 9.6,9.6v6.4c0,5.30194 -4.29806,9.6 -9.6,9.6h-6.4c-5.30193,0 -9.6,-4.29806 -9.6,-9.6z" fill="#ffffff" stroke-width="1"/></g></g></svg>