<svg version="1.1" xmlns="http://www.w3.org/2000/svg" xmlns:xlink="http://www.w3.org/1999/xlink" width="32.31168" height="30.85966" viewBox="0,0,32.31168,30.85966"><g transform="translate(-224.15666,-165.09695)"><g stroke-miterlimit="10"><path d="M251.18507,184.33357c-1.83844,5.1944 -6.75043,8.66673 -12.26057,8.66711c-7.17745,0 -13.00066,-5.82321 -13.00066,-13.00066c0,-7.17745 5.82321,-13.00066 13.00066,-13.00066c3.5537,-0.00443 6.95337,1.45037 9.40381,4.02411l1.43007,1.66368" fill="none" stroke="#ffffff" stroke-width="2.5" stroke-linecap="square"/><path d="M253.82941,170.01815v6.6077c0,0.09632 -0.07808,0.1744 -0.1744,0.1744h-6.6077c-0.07058,0.00006 -0.13424,-0.04244 -0.16126,-0.10764c-0.02702,-0.06521 -0.01207,-0.14027 0.03787,-0.19015l6.6077,-6.6077c0.04988,-0.04994 0.12494,-0.06489 0.19015,-0.03787c0.06521,0.02702 0.1077,0.09067 0.10764,0.16125" fill="#ffffff" stroke="none" stroke-width="1" stroke-linecap="butt"/><path d="M256.21834,192.19447c0,1.93954 -1.63579,3.51215 -3.65229,3.51215h-24.50752c-2.01693,0 -3.65187,-1.57302 -3.65187,-3.51215v-23.33577c0,-1.93954 1.63494,-3.51174 3.65187,-3.51174h24.5071c2.01778,0 3.65229,1.5722 3.65229,3.51174v23.33577z" fill-opacity="0.01176" fill="#ffffff" stroke="#ffffff" stroke-width="0.5" stroke-linecap="butt"/></g></g></svg>