<svg version="1.1" xmlns="http://www.w3.org/2000/svg" xmlns:xlink="http://www.w3.org/1999/xlink" width="98.65664" height="30.51443" viewBox="0,0,98.65664,30.51443"><g transform="translate(-190.67168,-164.74279)"><g stroke-miterlimit="10"><path d="M289.07832,168.24939v23.50187c0,1.79549 -2.71362,3.25596 -6.05345,3.25596h-86.0509c-3.33634,0 -6.05229,-1.46048 -6.05229,-3.25596v-23.50251c0,-1.79549 2.71595,-3.25596 6.05229,-3.25596h86.0509c3.33984,0 6.05345,1.4611 6.05345,3.25659z" fill="#000000" stroke="#ffffff" stroke-width="0.5"/><path d="M287.8323,179.93674c0,7.54212 -6.136,13.6788 -13.67879,13.6788c-7.54245,0 -13.67879,-6.13667 -13.67879,-13.6788c0,-7.54245 6.136,-13.6788 13.67879,-13.6788c7.54278,0 13.67879,6.13667 13.67879,13.6788z" fill="#ffffff" stroke="#737373" stroke-width="2.5"/><text transform="translate(266.28756,185.49152) scale(0.40543,0.40543)" font-size="40" xml:space="preserve" fill="#000000" stroke="none" stroke-width="1" font-family="Sans Serif" font-weight="normal" text-anchor="start"><tspan x="0" dy="0">开</tspan></text><text transform="translate(191.35991,185.93252) scale(0.3699,0.40206)" font-size="40" xml:space="preserve" fill="#ffffff" stroke="none" stroke-width="1" font-family="Sans Serif" font-weight="normal" text-anchor="start"><tspan x="0" dy="0">UTF-8修复</tspan></text></g></g></svg>