<svg version="1.1" xmlns="http://www.w3.org/2000/svg" xmlns:xlink="http://www.w3.org/1999/xlink" width="98.65664" height="30.51443" viewBox="0,0,98.65664,30.51443"><g transform="translate(-190.67168,-164.74278)"><g data-paper-data="{&quot;isPaintingLayer&quot;:true}" fill-rule="nonzero" stroke-miterlimit="10" stroke-dasharray="" stroke-dashoffset="0" style="mix-blend-mode: normal"><path d="M289.07832,168.24938v23.50187c0,1.79549 -2.71362,3.25596 -6.05345,3.25596h-86.0509c-3.33634,0 -6.05229,-1.46048 -6.05229,-3.25596v-23.50251c0,-1.79549 2.71595,-3.25596 6.05229,-3.25596h86.0509c3.33984,0 6.05345,1.4611 6.05345,3.25659z" fill="#000000" stroke="#ffffff" stroke-width="0.5" stroke-linecap="butt" stroke-linejoin="miter"/><text transform="translate(219.28569,185.12823) scale(0.40429,0.41864)" font-size="40" xml:space="preserve" fill="#ffffff" fill-rule="nonzero" stroke="none" stroke-width="1" stroke-linecap="butt" stroke-linejoin="miter" stroke-miterlimit="10" stroke-dasharray="" stroke-dashoffset="0" font-family="Sans Serif" font-weight="normal" text-anchor="start" style="mix-blend-mode: normal"><tspan x="0" dy="0">打开文件</tspan></text><path d="M198.74554,192.13476c-1.52686,0 -2.76463,-1.23777 -2.76463,-2.76463v-22.11708h12.44086l6.9116,6.91159v15.20549c0,1.52686 -1.23777,2.76464 -2.76464,2.76464zM205.65714,181.07623v5.52927M202.89249,183.84085h5.52927" fill="none" stroke="#ffffff" stroke-width="1.5" stroke-linecap="round" stroke-linejoin="round"/><path d="M215.33336,175.54696h-8.29391v-8.29391" fill="none" stroke="#ffffff" stroke-width="1.5" stroke-linecap="butt" stroke-linejoin="round"/></g></g></svg>