<svg version="1.1" xmlns="http://www.w3.org/2000/svg" xmlns:xlink="http://www.w3.org/1999/xlink" width="485.39738" height="26.7572" viewBox="0,0,485.39738,26.7572"><defs><linearGradient x1="240.39069" y1="178.98192" x2="240.39069" y2="180.98192" gradientUnits="userSpaceOnUse" id="color-1"><stop offset="0" stop-color="#000000" stop-opacity="0.25098"/><stop offset="1" stop-color="#ffffff" stop-opacity="0.05098"/></linearGradient><linearGradient x1="-0.09974" y1="168.24138" x2="0.96509" y2="168.24138" gradientUnits="userSpaceOnUse" id="color-2"><stop offset="0" stop-color="#ffffff" stop-opacity="0.25098"/><stop offset="1" stop-color="#ffffff" stop-opacity="0.05098"/></linearGradient><linearGradient x1="481.43598" y1="167.96991" x2="480.43752" y2="167.96991" gradientUnits="userSpaceOnUse" id="color-3"><stop offset="0" stop-color="#ffffff" stop-opacity="0.25098"/><stop offset="1" stop-color="#ffffff" stop-opacity="0.05098"/></linearGradient><linearGradient x1="-0.09974" y1="168.24138" x2="0.96509" y2="168.24138" gradientUnits="userSpaceOnUse" id="color-4"><stop offset="0" stop-color="#ffffff" stop-opacity="0.25098"/><stop offset="1" stop-color="#ffffff" stop-opacity="0.05098"/></linearGradient></defs><g transform="translate(1.65229,-154.86278)"><g stroke-miterlimit="10"><path d="" fill-opacity="0.50196" fill="#fafafa" stroke="none" stroke-width="0.5" stroke-linecap="butt"/><path d="" fill-opacity="0.50196" fill="#fafafa" stroke="none" stroke-width="0.5" stroke-linecap="butt"/><path d="M2.58166,179.98192h475.61806" fill="none" stroke="url(#color-1)" stroke-width="2" stroke-linecap="round"/><path d="M0.40605,180.61998l0.05324,-24.7572" fill="none" stroke="url(#color-2)" stroke-width="2" stroke-linecap="round"/><path d="M480.96171,179.57704l-0.04992,-23.21426" fill="none" stroke="url(#color-3)" stroke-width="2" stroke-linecap="round"/><path d="M483.49509,171.88709c0,4.752 -3.854,8.605 -8.605,8.605h-467.68838c-4.752,0 -8.604,-3.854 -8.604,-8.605v-8.11715c0,-4.752 3.852,-8.604 8.604,-8.604h467.68738c4.754,0 8.605,3.852 8.605,8.604v8.11715z" fill-opacity="0.25098" fill="#ffffff" stroke="#000000" stroke-width="0.5" stroke-linecap="butt"/><path d="M0.40605,180.61998l0.05324,-24.7572" fill="none" stroke="url(#color-4)" stroke-width="2" stroke-linecap="round"/></g></g></svg>