<svg version="1.1" xmlns="http://www.w3.org/2000/svg" xmlns:xlink="http://www.w3.org/1999/xlink" width="98.65664" height="30.51443" viewBox="0,0,98.65664,30.51443"><g transform="translate(-190.67168,-164.74279)"><g stroke-miterlimit="10"><path d="M289.07832,168.2494v23.50187c0,1.79549 -2.71362,3.25596 -6.05345,3.25596h-86.0509c-3.33634,0 -6.05229,-1.46048 -6.05229,-3.25596v-23.50251c0,-1.79549 2.71595,-3.25596 6.05229,-3.25596h86.0509c3.33984,0 6.05345,1.4611 6.05345,3.25659z" fill="#000000" stroke="#ffffff" stroke-width="0.5" stroke-linecap="butt"/><text transform="translate(217.81469,185.91515) scale(0.40429,0.41864)" font-size="40" xml:space="preserve" fill="#ffffff" stroke="none" stroke-width="1" stroke-linecap="butt" font-family="Sans Serif" font-weight="normal" text-anchor="start"><tspan x="0" dy="0">输入代码</tspan></text><g fill="none" stroke="#ffffff" stroke-width="1"><path d="M197.59265,188.46853h-4.79093v-16.2857h4.94333" stroke-linecap="butt"/><path d="M212.09707,172.18284h3.96993v16.2857h-4.26468" stroke-linecap="butt"/><path d="M197.03551,185.60903v-10.83786h15.7116v10.83786z" stroke-linecap="butt"/><path d="M199.57946,176.70072l10.7639,-0.0936" stroke-linecap="round"/><path d="M199.58952,178.20838l10.7639,-0.0936" stroke-linecap="round"/><path d="M199.68312,179.70597l10.7639,-0.0936" stroke-linecap="round"/><path d="M199.69319,181.49441l10.7639,-0.0936" stroke-linecap="round"/><path d="M199.70325,183.18925l10.7639,-0.0936" stroke-linecap="round"/></g></g></g></svg>