<svg version="1.1" xmlns="http://www.w3.org/2000/svg" xmlns:xlink="http://www.w3.org/1999/xlink" width="24.9618" height="28.24797" viewBox="0,0,24.9618,28.24797"><g transform="translate(-227.6441,-166.00102)"><g stroke-miterlimit="10"><path d="M249.6174,187.06654c-4.33189,6.58897 -12.82351,8.65634 -18.96661,4.61759c-6.14309,-4.03875 6.25924,-4.04894 10.59111,-10.6379c4.33189,-6.58897 -1.04709,-17.26161 5.096,-13.22285c6.14309,4.03875 7.61138,12.65419 3.27949,19.24316z" fill-opacity="0.90588" fill="#000000" stroke="#ffffff" stroke-width="1" stroke-linecap="butt"/><path d="M249.26803,179.87115c0,2.43232 -6.43249,-0.91798 -7.85321,0.74372c-1.59145,1.86139 1.68782,8.59379 -0.85245,8.59379c-4.80799,0 -8.70564,-4.18055 -8.70564,-9.3375c0,-5.15697 3.89765,-9.3375 8.70564,-9.3375c4.80799,0 8.70564,4.18055 8.70564,9.3375z" fill-opacity="0.90588" fill="#000000" stroke="#ffffff" stroke-width="1" stroke-linecap="butt"/><path d="M240.43634,166.25102v3.22952" fill="none" stroke="#000000" stroke-width="0.5" stroke-linecap="round"/><path d="M238.85429,169.87423l-0.73731,-3.14423" fill="none" stroke="#000000" stroke-width="0.5" stroke-linecap="round"/><path d="M242.06367,169.74891l0.73731,-3.14423" fill="none" stroke="#000000" stroke-width="0.5" stroke-linecap="round"/><path d="M234.20658,168.30226l1.87853,2.62696" fill="none" stroke="#000000" stroke-width="0.5" stroke-linecap="round"/><path d="M234.38406,171.81751l-1.98476,-2.54765" fill="none" stroke="#000000" stroke-width="0.5" stroke-linecap="round"/><path d="M236.33574,167.21448l1.22919,2.98645" fill="none" stroke="#000000" stroke-width="0.5" stroke-linecap="round"/><path d="M231.11433,177.5197l-3.13828,-0.7622" fill="none" stroke="#000000" stroke-width="0.5" stroke-linecap="round"/><path d="M227.8941,179.12438l3.22942,0.0256" fill="none" stroke="#000000" stroke-width="0.5" stroke-linecap="round"/><path d="M231.7592,176.00168l-2.8814,-1.45855" fill="none" stroke="#000000" stroke-width="0.5" stroke-linecap="round"/><path d="M231.49514,182.0899l-2.99609,1.20548" fill="none" stroke="#000000" stroke-width="0.5" stroke-linecap="round"/><path d="M231.13669,180.48001l-3.1922,0.48963" fill="none" stroke="#000000" stroke-width="0.5" stroke-linecap="round"/><path d="M229.84748,172.45348l2.46015,2.09226" fill="none" stroke="#000000" stroke-width="0.5" stroke-linecap="round"/><path d="M231.20339,170.82386l1.97762,2.55319" fill="none" stroke="#000000" stroke-width="0.5" stroke-linecap="round"/><path d="M232.65989,185.90652l-2.98833,1.22463" fill="none" stroke="#000000" stroke-width="0.5" stroke-linecap="round"/><path d="M232.02276,184.594l-3.17623,0.58435" fill="none" stroke="#000000" stroke-width="0.5" stroke-linecap="round"/></g></g></svg>