<svg version="1.1" xmlns="http://www.w3.org/2000/svg" xmlns:xlink="http://www.w3.org/1999/xlink" width="30.63147" height="27.90578" viewBox="0,0,30.63147,27.90578"><g transform="translate(-224.68427,-166.00103)"><g stroke-miterlimit="10"><path d="M224.93427,193.50895v-27.0179h30.13147v27.0179z" fill-opacity="0.01176" fill="#000000" stroke-opacity="0.00784" stroke="#ffffff" stroke-width="0.5" stroke-linecap="butt"/><path d="M249.26805,179.87116c0,2.43232 -6.43249,-0.91798 -7.85321,0.74372c-1.59145,1.86139 1.68782,8.59379 -0.85245,8.59379c-4.80799,0 -8.70564,-4.18055 -8.70564,-9.3375c0,-5.15697 3.89765,-9.3375 8.70564,-9.3375c4.80799,0 8.70564,4.18055 8.70564,9.3375z" fill-opacity="0.90588" fill="#ffffff" stroke="#000000" stroke-width="1" stroke-linecap="butt"/><path d="M249.07698,186.72437c-4.33189,6.58898 -12.8235,8.65635 -18.96661,4.61759c-6.14309,-4.03876 6.25924,-4.04895 10.59111,-10.6379c4.33189,-6.58898 -1.04709,-17.26161 5.096,-13.22285c6.14309,4.03876 7.61138,12.65418 3.27949,19.24316z" fill-opacity="0.90588" fill="#ffffff" stroke="#000000" stroke-width="1" stroke-linecap="butt"/><path d="M240.43636,166.25104v3.22952" fill="none" stroke="#ffffff" stroke-width="0.5" stroke-linecap="round"/><path d="M238.8543,169.87425l-0.7373,-3.14423" fill="none" stroke="#ffffff" stroke-width="0.5" stroke-linecap="round"/><path d="M242.801,166.6047l-0.73731,3.14423" fill="none" stroke="#ffffff" stroke-width="0.5" stroke-linecap="round"/><path d="M234.2066,168.30227l1.87853,2.62696" fill="none" stroke="#ffffff" stroke-width="0.5" stroke-linecap="round"/><path d="M234.38408,171.81753l-1.98476,-2.54765" fill="none" stroke="#ffffff" stroke-width="0.5" stroke-linecap="round"/><path d="M237.56496,170.20095l-1.2292,-2.98645" fill="none" stroke="#ffffff" stroke-width="0.5" stroke-linecap="round"/><path d="M231.11434,177.51971l-3.13828,-0.7622" fill="none" stroke="#ffffff" stroke-width="0.5" stroke-linecap="round"/><path d="M231.12355,179.15l-3.22942,-0.0256" fill="none" stroke="#ffffff" stroke-width="0.5" stroke-linecap="round"/><path d="M231.75921,176.00169l-2.88139,-1.45855" fill="none" stroke="#ffffff" stroke-width="0.5" stroke-linecap="round"/><path d="M228.49907,183.2954l2.99609,-1.20548" fill="none" stroke="#ffffff" stroke-width="0.5" stroke-linecap="round"/><path d="M231.1367,180.48002l-3.19219,0.48963" fill="none" stroke="#ffffff" stroke-width="0.5" stroke-linecap="round"/><path d="M229.8475,172.4535l2.46015,2.09226" fill="none" stroke="#ffffff" stroke-width="0.5" stroke-linecap="round"/><path d="M231.20341,170.82388l1.97762,2.55319" fill="none" stroke="#ffffff" stroke-width="0.5" stroke-linecap="round"/><path d="M229.67158,187.13118l2.98833,-1.22464" fill="none" stroke="#ffffff" stroke-width="0.5" stroke-linecap="round"/><path d="M232.02278,184.59403l-3.17623,0.58435" fill="none" stroke="#ffffff" stroke-width="0.5" stroke-linecap="round"/></g></g></svg>