<svg version="1.1" xmlns="http://www.w3.org/2000/svg" xmlns:xlink="http://www.w3.org/1999/xlink" width="98.65664" height="30.51443" viewBox="0,0,98.65664,30.51443"><g transform="translate(-190.67168,-164.74278)"><g stroke-miterlimit="10"><path d="M289.07832,168.24938v23.50187c0,1.79549 -2.71362,3.25596 -6.05345,3.25596h-86.0509c-3.33634,0 -6.05229,-1.46048 -6.05229,-3.25596v-23.50251c0,-1.79549 2.71595,-3.25596 6.05229,-3.25596h86.0509c3.33984,0 6.05345,1.4611 6.05345,3.25659z" fill="#e8e6e6" stroke="#000000" stroke-width="0.5" stroke-linecap="butt" stroke-linejoin="miter"/><text transform="translate(217.81469,185.91515) scale(0.40429,0.41864)" font-size="40" xml:space="preserve" fill="#000000" stroke="none" stroke-width="1" stroke-linecap="butt" stroke-linejoin="miter" font-family="Sans Serif" font-weight="normal" text-anchor="start"><tspan x="0" dy="0">复制链接</tspan></text><path d="M195.22477,184.43613v-16.14471h14.90281" fill="none" stroke="#000000" stroke-width="1" stroke-linecap="round" stroke-linejoin="round"/><path d="M200.19237,173.25902h14.90281v14.90281c0,1.37177 -1.11204,2.4838 -2.4838,2.4838h-9.9352c-1.37177,0 -2.4838,-1.11204 -2.4838,-2.4838z" fill="none" stroke="#000000" stroke-width="1" stroke-linecap="round" stroke-linejoin="round"/><path d="M203.43327,183.92384v-4.45855c0,-2.46239 1.99616,-4.45854 4.45855,-4.45854c2.46239,0 4.45854,1.99616 4.45854,4.45854v5.94473c0,1.64159 -1.33077,2.97236 -2.97236,2.97236c-1.64159,0 -2.97236,-1.33077 -2.97236,-2.97236v-5.94473c0,-0.8208 0.66538,-1.48618 1.48618,-1.48618c0.8208,0 1.48619,0.66538 1.48619,1.48618v5.94473" fill="none" stroke="#000000" stroke-width="1" stroke-linecap="round" stroke-linejoin="round"/></g></g></svg>