<svg version="1.1" xmlns="http://www.w3.org/2000/svg" xmlns:xlink="http://www.w3.org/1999/xlink" width="99.62485" height="30.51443" viewBox="0,0,99.62485,30.51443"><g transform="translate(-190.67168,-164.74278)"><g stroke-miterlimit="10"><path d="M289.07832,168.24938v23.50187c0,1.79549 -2.71362,3.25596 -6.05345,3.25596h-86.0509c-3.33634,0 -6.05229,-1.46048 -6.05229,-3.25596v-23.50251c0,-1.79549 2.71595,-3.25596 6.05229,-3.25596h86.0509c3.33984,0 6.05345,1.4611 6.05345,3.25659z" fill="#000000" stroke="#ffffff" stroke-width="0.5"/><path d="M219.45711,180.00001c0,7.64674 -6.136,13.86855 -13.67879,13.86855c-7.54245,0 -13.67879,-6.2218 -13.67879,-13.86855c0,-7.64708 6.136,-13.86855 13.67879,-13.86855c7.54278,0 13.67879,6.2218 13.67879,13.86855z" fill="#ffffff" stroke="#737373" stroke-width="2.5"/><text transform="translate(197.97564,185.49151) scale(0.40543,0.40543)" font-size="40" xml:space="preserve" fill="#000000" stroke="none" stroke-width="1" font-family="Sans Serif" font-weight="normal" text-anchor="start"><tspan x="0" dy="0">关</tspan></text><text transform="translate(219.857,185.93252) scale(0.3699,0.40206)" font-size="40" xml:space="preserve" fill="#ffffff" stroke="none" stroke-width="1" font-family="Sans Serif" font-weight="normal" text-anchor="start"><tspan x="0" dy="0">UTF-8修复</tspan></text></g></g></svg>