<svg version="1.1" xmlns="http://www.w3.org/2000/svg" xmlns:xlink="http://www.w3.org/1999/xlink" width="31.8803" height="30.84637" viewBox="0,0,31.8803,30.84637"><g transform="translate(-224.05985,-165.07857)"><g data-paper-data="{&quot;isPaintingLayer&quot;:true}" fill-rule="nonzero" stroke-miterlimit="10" stroke-dasharray="" stroke-dashoffset="0" style="mix-blend-mode: normal"><path d="M224.31727,195.67144l-0.25741,-30.59287h31.62289l0.25741,30.59287z" data-paper-data="{&quot;index&quot;:null}" fill-opacity="0.01176" fill="#ffffff" stroke="none" stroke-width="0" stroke-linecap="butt" stroke-linejoin="miter"/><path d="M236.0858,193.78485v-9.27093c0,-1.86189 1.50937,-3.37125 3.37125,-3.37125h1.68563c1.86189,0 3.37125,1.50936 3.37125,3.37125v9.27093" fill="none" stroke="#ffffff" stroke-width="1.5" stroke-linecap="round" stroke-linejoin="round"/><path d="M230.11049,195.17494c-1.98566,0 -3.59543,-1.59127 -3.59543,-3.55599v-14.29219c0,-1.07979 0.49726,-2.10274 1.34849,-2.77661l9.88957,-7.82321c1.3035,-1.03979 3.19037,-1.03979 4.49387,0l9.88787,7.82321c0.85292,0.67386 1.35018,1.69682 1.35018,2.77661v14.29219c0,1.96473 -1.60977,3.55599 -3.59544,3.55599z" fill="none" stroke="#ffffff" stroke-width="1.5" stroke-linecap="round" stroke-linejoin="round"/></g></g></svg>