<svg version="1.1" xmlns="http://www.w3.org/2000/svg" xmlns:xlink="http://www.w3.org/1999/xlink" width="125.30005" height="114.32867" viewBox="0,0,125.30005,114.32867"><g transform="translate(-177.35005,-123.1679)"><g stroke-miterlimit="10"><path d="M177.60006,237.24657v-113.82867h124.80005v113.82867z" fill-opacity="0.01176" fill="#ff0000" stroke="#ffffff" stroke-width="0.5"/><path d="M227.2,144.80001c0,-1.76731 1.43269,-3.2 3.2,-3.2h57.6c1.76731,0 3.2,1.43269 3.2,3.2c0,1.76731 -1.43269,3.2 -3.2,3.2h-57.6c-1.76731,0 -3.2,-1.43269 -3.2,-3.2M227.2,183.2c0,-1.76731 1.43269,-3.2 3.2,-3.2h57.6c1.76731,0 3.2,1.43269 3.2,3.2c0,1.76731 -1.43269,3.2 -3.2,3.2h-57.6c-1.76731,0 -3.2,-1.43269 -3.2,-3.2M227.2,221.60002c0,-1.76731 1.43269,-3.2 3.2,-3.2h57.6c1.76731,0 3.2,1.43269 3.2,3.2c0,1.76731 -1.43269,3.2 -3.2,3.2h-57.6c-1.76731,0 -3.2,-1.43269 -3.2,-3.2M188.80001,215.2c0,-5.30194 4.29807,-9.6 9.6,-9.6h6.4c5.30194,0 9.6,4.29806 9.6,9.6v6.4c0,5.30193 -4.29806,9.6 -9.6,9.6h-6.4c-5.30193,0 -9.6,-4.29807 -9.6,-9.6zM188.80001,176.80001c0,-5.30194 4.29807,-9.6 9.6,-9.6h6.4c5.30194,0 9.6,4.29807 9.6,9.6v6.4c0,5.30194 -4.29806,9.6 -9.6,9.6h-6.4c-5.30193,0 -9.6,-4.29807 -9.6,-9.6zM188.80001,138.40002c0,-5.30193 4.29807,-9.6 9.6,-9.6h6.4c5.30194,0 9.6,4.29807 9.6,9.6v6.4c0,5.30194 -4.29806,9.6 -9.6,9.6h-6.4c-5.30193,0 -9.6,-4.29806 -9.6,-9.6z" fill="#ffffff" stroke="none" stroke-width="1"/></g></g></svg>