<svg version="1.1" xmlns="http://www.w3.org/2000/svg" xmlns:xlink="http://www.w3.org/1999/xlink" width="98.65664" height="30.51443" viewBox="0,0,98.65664,30.51443"><g transform="translate(-190.67168,-164.7428)"><g data-paper-data="{&quot;isPaintingLayer&quot;:true}" fill-rule="nonzero" stroke-miterlimit="10" stroke-dasharray="" stroke-dashoffset="0" style="mix-blend-mode: normal"><path d="M289.07832,168.24941v23.50187c0,1.79549 -2.71362,3.25596 -6.05345,3.25596h-86.0509c-3.33634,0 -6.05229,-1.46048 -6.05229,-3.25596v-23.50251c0,-1.79549 2.71595,-3.25596 6.05229,-3.25596h86.0509c3.33984,0 6.05345,1.4611 6.05345,3.25659z" fill="#000000" stroke="#ffffff" stroke-width="0.5" stroke-linecap="butt" stroke-linejoin="miter"/><text transform="translate(217.81469,185.91516) scale(0.40429,0.41864)" font-size="40" xml:space="preserve" fill="#ffffff" fill-rule="nonzero" stroke="none" stroke-width="1" stroke-linecap="butt" stroke-linejoin="miter" stroke-miterlimit="10" stroke-dasharray="" stroke-dashoffset="0" font-family="Sans Serif" font-weight="normal" text-anchor="start" style="mix-blend-mode: normal"><tspan x="0" dy="0">复制链接</tspan></text><path d="M195.22477,184.43617v-16.14471h14.90281" fill="none" stroke="#ffffff" stroke-width="1" stroke-linecap="round" stroke-linejoin="round"/><path d="M200.19237,173.25906h14.90281v14.90281c0,1.37177 -1.11204,2.4838 -2.4838,2.4838h-9.9352c-1.37177,0 -2.4838,-1.11204 -2.4838,-2.4838z" fill="none" stroke="#ffffff" stroke-width="1" stroke-linecap="round" stroke-linejoin="round"/><path d="M203.43327,183.92384v-4.45854c0,-2.46239 1.99616,-4.45854 4.45854,-4.45854c2.46239,0 4.45854,1.99616 4.45854,4.45854v5.94472c0,1.64159 -1.33077,2.97236 -2.97236,2.97236c-1.64159,0 -2.97236,-1.33077 -2.97236,-2.97236v-5.94472c0,-0.8208 0.66539,-1.48618 1.48618,-1.48618c0.8208,0 1.48618,0.66539 1.48618,1.48618v5.94472" fill="none" stroke="#ffffff" stroke-width="1" stroke-linecap="round" stroke-linejoin="round"/></g></g></svg>